<svg width="53" height="40" viewBox="0 0 53 40" fill="none" xmlns="http://www.w3.org/2000/svg">
<path d="M1.64271 29.1613C-0.292778 30.4516 0.352383 32.9032 4.48142 34.0645C8.73948 35.4839 13.3846 35.871 17.9008 35.0968C18.1588 35.0968 18.4169 34.9677 18.5459 34.9677V30.5806L14.1588 32C12.4814 32.5161 10.804 32.6452 9.12658 32.2581C7.83625 31.871 8.09432 31.0968 9.6427 30.4516L18.5459 27.3548V22.5806L6.15883 26.8387C4.61045 27.3548 3.06206 28.129 1.64271 29.1613ZM31.5782 9.80645V22.3226C36.8685 24.9032 40.9975 22.3226 40.9975 15.6129C40.9975 8.77419 38.5459 5.67742 31.4492 3.22581C27.7072 1.93548 23.8363 0.774194 19.9653 0V37.2903L28.9975 40V8.64516C28.9975 7.22581 28.9975 6.19355 30.0298 6.58065C31.4492 6.96774 31.5782 8.3871 31.5782 9.80645ZM48.3524 26.1935C44.6104 24.9032 40.6104 24.3871 36.7395 24.7742C34.675 24.9032 32.7395 25.4194 30.933 26.0645L30.5459 26.1935V31.2258L38.933 28.129C40.6104 27.6129 42.2879 27.4839 43.9653 27.871C45.2556 28.2581 44.9975 29.0323 43.4492 29.6774L30.5459 34.4516V39.3548L48.3524 32.7742C49.6427 32.2581 50.804 31.6129 51.8363 30.5806C52.7395 29.2903 52.3524 27.4839 48.3524 26.1935Z" fill="#262626"/>
</svg>
